<?xml version="1.0" encoding="utf-8"?>
<!-- Generator: Adobe Illustrator 25.4.1, SVG Export Plug-In . SVG Version: 6.00 Build 0)  -->
<svg version="1.1" id="Layer_1" xmlns="http://www.w3.org/2000/svg" xmlns:xlink="http://www.w3.org/1999/xlink" x="0px" y="0px"
	 viewBox="0 0 400.8 38.4" style="enable-background:new 0 0 400.8 38.4;" xml:space="preserve">
<style type="text/css">
	.st0{fill:#fff;}
	.st1{fill:#fff;}
</style>
<g>
	<polygon class="st0" points="362.8,38.4 364.2,38.4 364.2,1 362.8,1 362.8,38.4 	"/>
	<polygon class="st0" points="309.2,38.4 310.5,38.4 310.5,1 309.2,1 309.2,38.4 	"/>
	<polygon class="st0" points="253.9,38.4 255.2,38.4 255.2,1 253.9,1 253.9,38.4 	"/>
	<polygon class="st0" points="188,38.4 189.3,38.4 189.3,1 188,1 188,38.4 	"/>
	<polygon class="st0" points="139.2,38.4 140.5,38.4 140.5,1 139.2,1 139.2,38.4 	"/>
	<polygon class="st0" points="92.1,38.4 93.5,38.4 93.5,1 92.1,1 92.1,38.4 	"/>
	<polygon class="st0" points="35.3,38.4 36.7,38.4 36.7,1 35.3,1 35.3,38.4 	"/>
	<polygon class="st1" points="376.4,35 399.6,35 399.6,26.8 387,26.8 387,23.7 394.9,23.7 394.9,15.6 387,15.6 387,12.8 399.6,12.8 
		399.6,4.5 376.4,4.5 376.4,35 	"/>
	<path class="st1" d="M332.2,35h8.9c3-7.8,8.6-22.8,11.6-30.5h-10.5l-5,16.1h-0.3L332,4.5h-11.2L332.2,35L332.2,35z"/>
	<path class="st1" d="M298.9,35c-3.2-7.8-9.4-22.8-12.6-30.5h-8l-9.5,22.4l-3.4,8.1h10.1l1.4-3.9h9.8l1.5,3.9H298.9L298.9,35z
		 M284.1,24.1h-4.7l1.5-4.1l0.8-2.5l0.8,2.5L284.1,24.1L284.1,24.1z"/>
	<polygon class="st1" points="243.5,4.5 233.1,4.5 229.9,19.4 229.6,19.4 226.1,4.5 218.1,4.5 214.5,19.4 214.5,19.3 214.4,19.4 
		214.2,19.4 211,4.5 199.8,4.5 208.8,35 217.2,35 221.5,20.9 225.9,35 234.3,35 243.5,4.5 	"/>
	<polygon class="st1" points="159,35 169.5,35 169.5,13.2 177,13.2 177,4.5 151.5,4.5 151.5,13.2 159,13.2 159,35 	"/>
	<polygon class="st1" points="105.7,35 116.3,35 116.3,24 123.5,24 123.5,15.9 116.3,15.9 116.3,12.8 128.2,12.8 128.2,4.5 
		105.7,4.5 105.7,35 	"/>
	<path class="st1" d="M64.2,35.8c9.4,0,16.9-5.4,16.9-16c0-10.7-6.7-16-16.4-16c-9.4,0-16.9,5.3-16.9,16
		C47.7,30.4,54.5,35.8,64.2,35.8L64.2,35.8z M64.4,26.9c-3.9,0-5.8-2.9-5.8-7.2c0-4.3,2-7,5.8-7c3.8,0,5.8,2.7,5.8,7.1
		C70.3,24,68.2,26.9,64.4,26.9L64.4,26.9z"/>
	<path class="st1" d="M10.7,35.8c8.8,0,13.4-4.5,13.4-10.9c0-7-4.9-9-10-9.5l-1.3-0.1c-1.4-0.3-1.8-0.7-1.8-1.6c0-1,0.7-1.5,3-1.5
		c4.3,0,7.4,1.4,9.2,3V6c-1.4-1.2-4.6-2.2-9.7-2.2C5.6,3.8,1,7.6,1,14.1c0,6.8,4.3,9.5,9.4,10.1l1.1,0.1c2.1,0.3,2.7,0.6,2.7,1.6
		c0,1.1-0.7,1.7-3.8,1.7c-4.1,0-7.3-1.7-9.1-3.2v9.3C2.8,34.8,5.9,35.8,10.7,35.8L10.7,35.8z"/>
</g>
</svg>
